<?xml version="1.0" encoding="utf-8"?>
<!-- Generator: Adobe Illustrator 22.0.1, SVG Export Plug-In . SVG Version: 6.00 Build 0)  -->
<svg version="1.1" id="Camada_1" xmlns="http://www.w3.org/2000/svg" xmlns:xlink="http://www.w3.org/1999/xlink" x="0px" y="0px"
	 viewBox="0 0 160.7 76.9" style="enable-background:new 0 0 160.7 76.9;" xml:space="preserve">
<style type="text/css">
	.st0{fill:none;stroke:#DDC4AE;stroke-width:2;}
	.st1{fill:#E5C46C;}
</style>
<g>
	<g>
		<path class="st0" d="M32.4,21.3H19.7l-2.3,13.4H9.5L15.3,1h21.9l-1.1,6.3h-14L20.8,15h12.7L32.4,21.3z"/>
		<path class="st0" d="M49.2,22.8h-4.4l-2.1,11.9h-7.9L40.6,1l11.9,0c3.8,0,6.7,0.9,8.8,2.7c2.1,1.8,3,4.2,2.8,7.3
			c-0.2,2.4-0.9,4.4-2.1,6c-1.2,1.6-3,2.9-5.2,3.8l4.5,13.5v0.4h-8.4L49.2,22.8z M45.9,16.5l4.6,0c1.3,0,2.4-0.3,3.3-0.9
			c0.9-0.6,1.6-1.5,2-2.5c0.4-1.1,0.5-2.1,0.3-3.1c-0.3-1.7-1.4-2.6-3.3-2.7l-5.4,0L45.9,16.5z"/>
		<path class="st0" d="M87.8,20.4H75.4L74,28.4h14.6l-1.1,6.2H65L70.8,1h22.6l-1.1,6.3H77.7l-1.2,7.1h12.4L87.8,20.4z"/>
		<path class="st0" d="M121.9,7.3h-9.8l-4.7,27.4h-7.9l4.8-27.4h-9.6L95.6,1H123L121.9,7.3z"/>
		<path class="st0" d="M143.4,20.4H131l-1.4,8.1h14.6l-1.1,6.2h-22.6L126.5,1h22.6L148,7.3h-14.7l-1.2,7.1h12.4L143.4,20.4z"/>
	</g>
	<g>
		<path class="st1" d="M25.7,72.2c-1.3,1.5-3.1,2.6-5.5,3.4c-2.4,0.8-5.1,1.2-8.1,1.1c-2.8,0-5.2-0.7-7.1-2.1
			c-1.9-1.4-3.3-3.3-4.2-5.8c-0.8-2.5-1.1-5.3-0.7-8.4l0.2-1.4c0.7-5.2,2.5-9.4,5.5-12.4c3-3.1,6.6-4.5,10.9-4.5
			c3.8,0.1,6.7,1.1,8.7,3c2,2,3.1,4.8,3.4,8.5l-7.6,0c-0.1-1.8-0.6-3.1-1.3-3.9c-0.8-0.8-1.9-1.3-3.3-1.3c-2.1-0.1-3.9,0.8-5.3,2.5
			c-1.4,1.7-2.3,4.2-2.8,7.5c-0.4,2.8-0.6,4.9-0.5,6.5c0.2,3.7,1.9,5.6,5,5.6c1.9,0,3.5-0.4,4.9-1.4l1-5.3h-5.5l1-5.6h13.4
			L25.7,72.2z"/>
		<path class="st1" d="M43.8,64.5h-4.4l-2.1,11.9h-7.9l5.8-33.7l11.9,0c3.8,0,6.7,0.9,8.8,2.7c2.1,1.8,3,4.2,2.8,7.3
			c-0.2,2.4-0.9,4.4-2.1,6c-1.2,1.6-3,2.9-5.2,3.8L55.9,76v0.4h-8.4L43.8,64.5z M40.4,58.2l4.6,0c1.3,0,2.4-0.3,3.3-0.9
			c0.9-0.6,1.6-1.5,2-2.5c0.4-1.1,0.5-2.1,0.3-3.1c-0.3-1.7-1.4-2.6-3.3-2.7l-5.4,0L40.4,58.2z"/>
		<path class="st1" d="M79.4,70.1H68.6l-3,6.3h-8.7l17.8-33.7h7.4l6.2,33.7h-8.2L79.4,70.1z M71.6,63.8h7l-1.5-11.6L71.6,63.8z
			 M80.9,33.7h8.5L82,40.9l-6.7,0L80.9,33.7z"/>
		<path class="st1" d="M118.8,49H109l-4.7,27.4h-7.9l4.8-27.4h-9.6l1.1-6.3h27.3L118.8,49z"/>
		<path class="st1" d="M126,76.4h-7.9l5.9-33.7h7.9L126,76.4z"/>
		<path class="st1" d="M150.1,67.3c0.3-1.7-0.6-3.1-2.8-4l-3.8-1.6c-5.3-2.4-7.9-5.6-7.6-9.8c0.1-1.9,0.8-3.6,1.9-5
			c1.2-1.5,2.8-2.6,4.9-3.4c2.1-0.8,4.4-1.2,6.9-1.2c3.3,0.1,6,1,8,2.9s3,4.4,3,7.6h-7.9c0-1.3-0.2-2.3-0.8-3.1
			c-0.6-0.8-1.6-1.2-2.9-1.2c-1.3,0-2.5,0.3-3.5,0.9c-1,0.6-1.6,1.5-1.8,2.6c-0.3,1.5,0.9,2.8,3.4,3.8c2.6,1,4.5,1.8,5.6,2.5
			c3.7,2.2,5.4,5.2,5.2,8.9c-0.1,1.9-0.7,3.6-1.9,5.1c-1.1,1.5-2.7,2.6-4.7,3.4c-2,0.8-4.2,1.2-6.7,1.2c-1.8,0-3.5-0.3-5.1-0.9
			c-1.6-0.5-2.9-1.3-4-2.4c-2.3-2.1-3.3-4.8-3.2-8.2l7.9,0c-0.1,1.7,0.2,3,1,3.9c0.8,0.9,2,1.3,3.8,1.3c1.3,0,2.4-0.3,3.3-0.9
			C149.4,69.2,149.9,68.3,150.1,67.3z"/>
	</g>
</g>
</svg>
